<svg height="33" width="35" xmlns="http://www.w3.org/2000/svg" viewBox="0 0 35 33"><path fill="#ffc600" fill-rule="evenodd" d="M32.81 9.72c-1.22 1.5-3.11 2.27-5.59 2.3-1.37 4.06-4.82 7.06-8.98 7.5v7.45h3.3c.6 0 1.07.48 1.07 1.07 0 .59-.47 1.07-1.07 1.07H12.9c-.59 0-1.06-.48-1.06-1.07 0-.59.47-1.07 1.06-1.07h3.2v-7.45c-4.15-.45-7.6-3.45-8.96-7.51-2.39-.07-4.23-.83-5.42-2.29C-.36 7.17.35 3.42.38 3.27c.11-.5.54-.86 1.05-.86H6.5V1.35C6.5.76 6.98.28 7.57.28h19.22c.59 0 1.07.48 1.07 1.07v1.06h5.24c.5 0 .94.36 1.04.86.03.15.75 3.9-1.33 6.45zM2.39 4.55c-.05.97.04 2.68.99 3.83.7.85 1.8 1.32 3.25 1.46-.08-.55-.13-1.11-.13-1.68V4.55H2.39zm23.34-2.13H8.64v5.74c0 5.12 3.83 9.28 8.54 9.28 4.71 0 8.55-4.16 8.55-9.28V2.42zm2.13 2.13v3.61c0 .58-.05 1.14-.12 1.69 1.52-.12 2.68-.59 3.4-1.47.95-1.15 1.05-2.85 1-3.83h-4.28zM9.71 30.21h15.03c.59 0 1.07.48 1.07 1.07 0 .59-.48 1.07-1.07 1.07H9.71c-.59 0-1.07-.48-1.07-1.07 0-.59.48-1.07 1.07-1.07z"/></svg>