<svg xmlns="http://www.w3.org/2000/svg" preserveAspectRatio="xMidYMid" width="80.594" height="75.782" viewBox="0 0 80.594 75.782"><defs><style>.cls-1 { fill: #00a332; fill-rule: evenodd; }</style></defs><path d="M63.647 75.76c-.443 0-.89-.118-1.287-.355l-22.063-13.14-22.072 13.14c-.874.52-1.964.464-2.78-.136-.815-.602-1.194-1.636-.957-2.622l5.87-24.64L.878 31.46c-.778-.66-1.083-1.726-.77-2.7.31-.97 1.176-1.66 2.192-1.744l25.69-2.124 9.992-23.36C38.378.602 39.288 0 40.297 0c1.01 0 1.92.603 2.315 1.532l9.983 23.358 25.695 2.124c1.016.084 1.88.774 2.19 1.746.314.972.01 2.037-.77 2.697L60.228 48.01l5.87 24.638c.236.986-.143 2.02-.957 2.62-.443.327-.967.492-1.493.492zM8.775 31.547l16.02 13.613c.726.614 1.043 1.586.822 2.513L20.77 68.017l18.24-10.86c.793-.473 1.782-.473 2.574 0l18.23 10.857-4.847-20.34c-.22-.928.096-1.9.822-2.514l16.024-13.613L50.67 29.8c-.93-.078-1.743-.664-2.11-1.524l-8.263-19.34-8.273 19.34c-.367.86-1.18 1.446-2.11 1.523l-21.14 1.747z" class="cls-1"/></svg>